TWILIGHT SAGA ECLIPSE


Format                           : MPEG-4
Format profile                   : Base Media
Codec ID                         : isom
File size                        : 1.82 GiB
Duration                         : 2h 3mn
Overall bit rate                 : 2 102 Kbps
Writing application              : Lavf52.56.0

Video
ID                               : 1
Format                           : AVC
Format/Info                      : Advanced Video Codec
Format profile                   : Baseline@L3.1
Format settings, CABAC           : No
Format settings, ReFrames        : 2 frames
Format settings, GOP             : M=1, N=50
Codec ID                         : avc1
Codec ID/Info                    : Advanced Video Coding
Duration                         : 2h 3mn
Bit rate mode                    : Variable
Bit rate                         : 1 938 Kbps
Width                            : 1 280 pixels
Height                           : 528 pixels
Display aspect ratio             : 2.40:1
Frame rate mode                  : Constant
Frame rate                       : 23.976 fps
Color space                      : YUV
Chroma subsampling               : 4:2:0
Bit depth                        : 8 bits
Scan type                        : Progressive
Bits/(Pixel*Frame)               : 0.120
Stream size                      : 1.68 GiB (92%)
Writing library                  : x264 core 88

Audio
ID                               : 2
Format                           : AAC
Format/Info                      : Advanced Audio Codec
Format profile                   : LC
Codec ID                         : 40
Duration                         : 2h 3mn
Bit rate mode                    : Variable
Bit rate                         : 160 Kbps
Channel(s)                       : 2 channels
Channel positions                : Front: L R
Sampling rate                    : 48.0 KHz
Compression mode                 : Lossy
Stream size                      : 142 MiB (8%)
Language                         : English


BROUGHT TO YOU BY TRIPLE.X 

PLEASE SEED 

PLEASE FEEL FREE TO PUT IN REQUESTS